<svg width="25" height="25" viewBox="0 0 25 25" fill="none" xmlns="http://www.w3.org/2000/svg">
<path d="M9.37547 0.43485C9.66016 0.78193 9.75734 1.30502 9.50109 1.7752C8.62516 3.38241 8.12735 5.22347 8.12735 7.18259C8.12735 13.4645 13.2505 18.5511 19.5628 18.5511C20.3852 18.5511 21.1866 18.4649 21.9585 18.3014C22.4863 18.1896 22.9663 18.4282 23.2236 18.7947C23.4891 19.1729 23.5448 19.7372 23.1748 20.1913C20.7865 23.1227 17.1325 25 13.0368 25C5.83347 25 0 19.1974 0 12.0469C0 6.66532 3.30336 2.04995 8.00553 0.0938872C8.54881 -0.132111 9.0817 0.0767081 9.37547 0.43485ZM7.59058 2.04788C4.02344 3.97232 1.60143 7.72827 1.60143 12.0469C1.60143 18.3288 6.72454 23.4154 13.0368 23.4154C16.2181 23.4154 19.0962 22.1247 21.1705 20.0381C20.6434 20.1025 20.1068 20.1357 19.5628 20.1357C12.3594 20.1357 6.52593 14.3331 6.52593 7.18259C6.52593 5.3596 6.9054 3.62301 7.59058 2.04788Z" fill="black"/>
<path d="M16.8662 4.91912C16.9691 4.61029 17.4059 4.61029 17.5089 4.91913L18.114 6.73453C18.3838 7.54375 19.0187 8.17875 19.828 8.44849L21.6434 9.05363C21.9522 9.15657 21.9522 9.59341 21.6434 9.69636L19.828 10.3015C19.0188 10.5712 18.3838 11.2062 18.114 12.0155L17.5089 13.8309C17.4059 14.1397 16.9691 14.1397 16.8662 13.8309L16.261 12.0154C15.9913 11.2062 15.3563 10.5712 14.5471 10.3015L12.7316 9.69636C12.4228 9.59341 12.4228 9.15657 12.7316 9.05363L14.5471 8.44848C15.3563 8.17874 15.9913 7.54376 16.261 6.73455L16.8662 4.91912Z" fill="black"/>
<path d="M21.6608 0.154416C21.7294 -0.0514734 22.0206 -0.0514717 22.0893 0.154419L22.4927 1.36469C22.6725 1.90417 23.0958 2.3275 23.6353 2.50732L24.8456 2.91075C25.0515 2.97938 25.0515 3.27061 24.8456 3.33924L23.6353 3.74266C23.0958 3.92249 22.6725 4.34582 22.4927 4.8853L22.0893 6.09558C22.0206 6.30147 21.7294 6.30147 21.6608 6.09558L21.2573 4.88529C21.0775 4.34582 20.6542 3.92249 20.1147 3.74267L18.9044 3.33924C18.6985 3.27061 18.6985 2.97938 18.9044 2.91075L20.1147 2.50732C20.6542 2.3275 21.0775 1.90417 21.2573 1.3647L21.6608 0.154416Z" fill="black"/>
</svg>
