<svg width="25" height="25" viewBox="0 0 25 25" fill="none" xmlns="http://www.w3.org/2000/svg">
<path d="M0 12.5C0 5.59644 5.59644 0 12.5 0C19.4036 0 25 5.59644 25 12.5C25 19.4036 19.4036 25 12.5 25C5.59644 25 0 19.4036 0 12.5ZM11.7187 1.68211C10.6728 2.002 9.63222 2.96441 8.76991 4.58123C8.54629 5.00053 8.3396 5.456 8.15268 5.94314C9.2545 6.18891 10.4539 6.34551 11.7187 6.39148V1.68211ZM6.6383 5.53037C6.8616 4.93024 7.11356 4.36659 7.39124 3.84594C7.67049 3.32234 7.98222 2.83189 8.32384 2.38805C6.98366 2.94215 5.77759 3.75492 4.76789 4.76413C5.33271 5.05138 5.95952 5.30902 6.6383 5.53037ZM5.48196 11.7187C5.53866 10.0469 5.77631 8.45723 6.1638 7.0192C5.27394 6.72971 4.45278 6.37972 3.71947 5.97725C2.51001 7.6027 1.74123 9.57547 1.58997 11.7187H5.48196ZM7.66983 7.43569C7.32222 8.72882 7.10151 10.1765 7.0454 11.7187H11.7187V7.95491C10.2972 7.90666 8.93293 7.72747 7.66983 7.43569ZM13.2812 7.95491V11.7187H17.9546C17.8985 10.1765 17.6778 8.72882 17.3302 7.43569C16.0671 7.72747 14.7028 7.90666 13.2812 7.95491ZM7.0454 13.2812C7.10151 14.8234 7.32222 16.2712 7.66983 17.5643C8.93293 17.2725 10.2972 17.0933 11.7187 17.0451V13.2812H7.0454ZM13.2812 13.2812V17.0451C14.7028 17.0933 16.0671 17.2725 17.3302 17.5643C17.6778 16.2712 17.8985 14.8234 17.9546 13.2812H13.2812ZM8.15268 19.0568C8.3396 19.544 8.54629 19.9994 8.76991 20.4187C9.63222 22.0356 10.6728 22.998 11.7187 23.3179V18.6085C10.4539 18.6545 9.2545 18.8111 8.15268 19.0568ZM8.32385 22.6119C7.98223 22.1681 7.67049 21.6776 7.39124 21.154C7.11356 20.6334 6.8616 20.0697 6.6383 19.4696C5.95952 19.691 5.33271 19.9486 4.76789 20.2358C5.77759 21.2451 6.98366 22.0578 8.32385 22.6119ZM6.1638 17.9808C5.77631 16.5428 5.53866 14.9531 5.48196 13.2812H1.58997C1.74123 15.4245 2.51001 17.3973 3.71947 19.0227C4.45278 18.6203 5.27395 18.2703 6.1638 17.9808ZM16.6761 22.6119C18.0163 22.0578 19.2224 21.2451 20.2321 20.2358C19.6673 19.9486 19.0405 19.691 18.3617 19.4696C18.1384 20.0697 17.8864 20.6334 17.6087 21.154C17.3295 21.6776 17.0178 22.1681 16.6761 22.6119ZM13.2812 18.6085V23.3179C14.3272 22.998 15.3678 22.0356 16.2301 20.4187C16.4537 19.9994 16.6604 19.544 16.8473 19.0568C15.7455 18.8111 14.5461 18.6545 13.2812 18.6085ZM18.8362 17.9808C19.726 18.2703 20.5472 18.6203 21.2805 19.0227C22.49 17.3973 23.2588 15.4245 23.41 13.2812H19.518C19.4613 14.9531 19.2237 16.5428 18.8362 17.9808ZM23.41 11.7187C23.2588 9.57547 22.49 7.60269 21.2805 5.97725C20.5472 6.37972 19.726 6.72971 18.8362 7.0192C19.2237 8.45723 19.4613 10.0469 19.518 11.7187H23.41ZM17.6087 3.84594C17.8864 4.36659 18.1384 4.93024 18.3617 5.53037C19.0405 5.30902 19.6673 5.05138 20.2321 4.76413C19.2224 3.75492 18.0163 2.94214 16.6761 2.38805C17.0178 2.83189 17.3295 3.32235 17.6087 3.84594ZM16.8473 5.94314C16.6604 5.456 16.4537 5.00053 16.2301 4.58123C15.3678 2.96441 14.3272 2.002 13.2812 1.68211V6.39148C14.5461 6.34551 15.7455 6.18891 16.8473 5.94314Z" fill="black"/>
</svg>
