<svg width="16" height="17" viewBox="0 0 16 17" fill="none" xmlns="http://www.w3.org/2000/svg">
<path d="M9.04941 0.93471C8.46984 0.355138 7.53017 0.355137 6.95059 0.934709L4.0462 3.8391L8 7.79289L11.9538 3.8391L9.04941 0.93471Z" fill="white"/>
<path d="M12.6609 4.54621L8.70711 8.5L12.6609 12.4538L15.5653 9.54944C16.1449 8.96987 16.1449 8.0302 15.5653 7.45062L12.6609 4.54621Z" fill="white"/>
<path d="M11.9538 13.1609L8 9.20711L4.04617 13.1609L6.95059 16.0654C7.53016 16.6449 8.46983 16.6449 9.04941 16.0654L11.9538 13.1609Z" fill="white"/>
<path d="M3.33907 12.4538L7.29289 8.5L3.3391 4.5462L0.434679 7.45062C-0.144892 8.03019 -0.144894 8.96986 0.434678 9.54944L3.33907 12.4538Z" fill="white"/>
</svg>
