<svg width="25" height="25" viewBox="0 0 25 25" fill="none" xmlns="http://www.w3.org/2000/svg">
<path d="M12.5 23.4375C6.45939 23.4375 1.5625 18.5406 1.5625 12.5C1.5625 6.45939 6.45939 1.5625 12.5 1.5625C18.5406 1.5625 23.4375 6.45939 23.4375 12.5C23.4375 18.5406 18.5406 23.4375 12.5 23.4375ZM12.5 25C19.4036 25 25 19.4036 25 12.5C25 5.59644 19.4036 0 12.5 0C5.59644 0 0 5.59644 0 12.5C0 19.4036 5.59644 25 12.5 25Z" fill="black"/>
<path d="M13.9542 10.2936L10.3745 10.7422L10.2463 11.3373L10.9513 11.4655C11.4091 11.5753 11.5006 11.7401 11.3999 12.1979L10.2463 17.6178C9.94421 19.0186 10.4111 19.6777 11.5098 19.6777C12.3612 19.6777 13.35 19.2841 13.7986 18.7439L13.9359 18.0939C13.6246 18.3685 13.1669 18.4784 12.8647 18.4784C12.4344 18.4784 12.2788 18.1763 12.3887 17.6453L13.9542 10.2936Z" fill="black"/>
<path d="M14.0625 7.03125C14.0625 7.8942 13.3629 8.59375 12.5 8.59375C11.6371 8.59375 10.9375 7.8942 10.9375 7.03125C10.9375 6.1683 11.6371 5.46875 12.5 5.46875C13.3629 5.46875 14.0625 6.1683 14.0625 7.03125Z" fill="black"/>
</svg>
