<svg width="17" height="17" viewBox="0 0 17 17" fill="none" xmlns="http://www.w3.org/2000/svg">
<path d="M3.5 7C3.5 6.72386 3.72386 6.5 4 6.5H9C9.27614 6.5 9.5 6.72386 9.5 7C9.5 7.27614 9.27614 7.5 9 7.5H4C3.72386 7.5 3.5 7.27614 3.5 7Z" fill="white"/>
<path d="M3.5 10C3.5 9.72386 3.72386 9.5 4 9.5H9C9.27614 9.5 9.5 9.72386 9.5 10C9.5 10.2761 9.27614 10.5 9 10.5H4C3.72386 10.5 3.5 10.2761 3.5 10Z" fill="white"/>
<path d="M4 12.5C3.72386 12.5 3.5 12.7239 3.5 13C3.5 13.2761 3.72386 13.5 4 13.5H9C9.27614 13.5 9.5 13.2761 9.5 13C9.5 12.7239 9.27614 12.5 9 12.5H4Z" fill="white"/>
<path d="M2.5 0.5C1.39543 0.5 0.5 1.39543 0.5 2.5V14.5C0.5 15.6046 1.39543 16.5 2.5 16.5H14.5C15.6046 16.5 16.5 15.6046 16.5 14.5V2.5C16.5 1.39543 15.6046 0.5 14.5 0.5H2.5ZM14.5 1.5C15.0523 1.5 15.5 1.94772 15.5 2.5V3.5H1.5V2.5C1.5 1.94772 1.94772 1.5 2.5 1.5H14.5ZM15.5 4.5V14.5C15.5 15.0523 15.0523 15.5 14.5 15.5H12.5V4.5H15.5ZM11.5 4.5V15.5H2.5C1.94772 15.5 1.5 15.0523 1.5 14.5V4.5H11.5Z" fill="white"/>
</svg>
