<svg width="25" height="25" viewBox="0 0 25 25" fill="none" xmlns="http://www.w3.org/2000/svg">
<path d="M12.5 25C14.2259 25 15.625 23.6009 15.625 21.875H9.375C9.375 23.6009 10.7741 25 12.5 25Z" fill="white"/>
<path d="M12.5 2.99727L11.2544 3.24883C8.39926 3.82545 6.25003 6.35098 6.25003 9.375C6.25003 10.356 6.04009 12.8082 5.53306 15.2221C5.28135 16.4205 4.9446 17.6682 4.49702 18.75H20.503C20.0554 17.6682 19.7187 16.4205 19.467 15.2221C18.96 12.8082 18.75 10.356 18.75 9.375C18.75 6.35096 16.6008 3.82542 13.7456 3.24882L12.5 2.99727ZM22.2177 18.75C22.5665 19.4491 22.9711 20.0015 23.4375 20.3125H1.5625C2.02895 20.0015 2.43351 19.4491 2.78234 18.75C4.18628 15.9365 4.68753 10.7487 4.68753 9.375C4.68753 5.59272 7.37531 2.4382 10.9451 1.71725C10.9401 1.66635 10.9375 1.61472 10.9375 1.5625C10.9375 0.699555 11.6371 0 12.5 0C13.3629 0 14.0625 0.699555 14.0625 1.5625C14.0625 1.61472 14.0599 1.66634 14.0549 1.71724C17.6247 2.43816 20.3125 5.59269 20.3125 9.375C20.3125 10.7487 20.8137 15.9365 22.2177 18.75Z" fill="white"/>
</svg>
