<svg width="16" height="17" viewBox="0 0 16 17" fill="none" xmlns="http://www.w3.org/2000/svg">
<path d="M9.40466 1.55039C8.99186 0.149871 7.00814 0.149872 6.59534 1.55039L6.49523 1.89003C6.23147 2.7849 5.20935 3.20827 4.39008 2.76201L4.07913 2.59264C2.79692 1.89422 1.39422 3.29693 2.09264 4.57913L2.26201 4.89008C2.70827 5.70935 2.2849 6.73147 1.39003 6.99523L1.05039 7.09534C-0.350129 7.50814 -0.350128 9.49186 1.05039 9.90466L1.39003 10.0048C2.2849 10.2685 2.70827 11.2906 2.26201 12.1099L2.09264 12.4209C1.39422 13.7031 2.79692 15.1058 4.07913 14.4074L4.39008 14.238C5.20935 13.7917 6.23147 14.2151 6.49523 15.11L6.59534 15.4496C7.00814 16.8501 8.99186 16.8501 9.40466 15.4496L9.50477 15.11C9.76853 14.2151 10.7906 13.7917 11.6099 14.238L11.9209 14.4074C13.2031 15.1058 14.6058 13.7031 13.9074 12.4209L13.738 12.1099C13.2917 11.2906 13.7151 10.2685 14.61 10.0048L14.9496 9.90466C16.3501 9.49186 16.3501 7.50814 14.9496 7.09534L14.61 6.99523C13.7151 6.73147 13.2917 5.70935 13.738 4.89008L13.9074 4.57913C14.6058 3.29692 13.2031 1.89422 11.9209 2.59264L11.6099 2.76201C10.7906 3.20827 9.76853 2.7849 9.50477 1.89003L9.40466 1.55039ZM8 11.4288C6.38246 11.4288 5.07119 10.1175 5.07119 8.5C5.07119 6.88246 6.38246 5.57119 8 5.57119C9.61754 5.57119 10.9288 6.88246 10.9288 8.5C10.9288 10.1175 9.61754 11.4288 8 11.4288Z" fill="#FAFAFA"/>
</svg>
